# xmcd
#
# Track frame offsets: 
#        150
#        11500
#        23112
#        34265
#        44077
#        53995
#        68327
#        83097
#        94010
#        113782
#        126875
#        138175
#        149700
#        158880
#        168462
#
# Disc length: 2461 seconds
#
# Revision: 1
# Processed by: cddbd v1.4PL0 Copyright (c) Steve Scherf et al.
# Submitted via: ExactAudioCopy v0.90b3
#
DISCID=ca099b0f
DTITLE=Marty Robbins - The Very Best Of Disc 1
DYEAR=1998
DGENRE=Country
TTITLE0=A White Sports Coat (And  A Pink Carnation)
TTITLE1=The Story Of My Life
TTITLE2=Singing The Blues
TTITLE3=Just Married
TTITLE4=Knee Deep In The Blues
TTITLE5=Have I Told You Lately That I Love You?
TTITLE6=Don't Worry
TTITLE7=I Don't Know Why (I Just Do)
TTITLE8=El Paso
TTITLE9=Devil Woman
TTITLE10=Begging To You
TTITLE11=Ribbon Of Darkness
TTITLE12=Ruby Ann
TTITLE13=Half As Much
TTITLE14=Adios Amigo
EXTD=
EXTT0=
EXTT1=
EXTT2=
EXTT3=
EXTT4=
EXTT5=
EXTT6=
EXTT7=
EXTT8=
EXTT9=
EXTT10=
EXTT11=
EXTT12=
EXTT13=
EXTT14=
PLAYORDER=
